<svg xmlns="http://www.w3.org/2000/svg" xmlns:xlink="http://www.w3.org/1999/xlink" viewBox="0 0 72.36 71.26"><defs><linearGradient id="Безымянный_градиент_4" x1="35.99" y1="1.88" x2="35.99" y2="68.61" gradientUnits="userSpaceOnUse"><stop offset="0" stop-color="#f0c836"/><stop offset="1" stop-color="#dba026"/></linearGradient><linearGradient id="Безымянный_градиент_1294" x1="23.98" y1="13.31" x2="52.55" y2="64.9" gradientUnits="userSpaceOnUse"><stop offset="0" stop-color="#ecdb66"/><stop offset="1" stop-color="#e1b32c"/></linearGradient><linearGradient id="Безымянный_градиент_1328" x1="35.96" y1="43.92" x2="35.96" y2="68.77" gradientUnits="userSpaceOnUse"><stop offset="0" stop-color="#f0c635" stop-opacity="0"/><stop offset="1" stop-color="#af6f2e"/></linearGradient><linearGradient id="Безымянный_градиент_1735" x1="20.56" y1="39.69" x2="40.56" y2="55.36" gradientUnits="userSpaceOnUse"><stop offset="0" stop-color="#f6e135" stop-opacity="0"/><stop offset=".09" stop-color="#f6e135" stop-opacity=".04"/><stop offset=".24" stop-color="#f7e335" stop-opacity=".14"/><stop offset=".44" stop-color="#f7e536" stop-opacity=".31"/><stop offset=".66" stop-color="#f8e836" stop-opacity=".54"/><stop offset=".88" stop-color="#f9eb37" stop-opacity=".8"/></linearGradient><linearGradient id="Безымянный_градиент_2" x1="27.29" y1="8.29" x2="43.47" y2="46.52" gradientUnits="userSpaceOnUse"><stop offset="0" stop-color="#ead935"/><stop offset="1" stop-color="#fbf766"/></linearGradient><linearGradient id="Безымянный_градиент_1724" x1="27.43" y1="-34.68" x2="42.94" y2="44.25" gradientUnits="userSpaceOnUse"><stop offset=".59" stop-color="#efc446" stop-opacity="0"/><stop offset=".61" stop-color="#f0c64d" stop-opacity=".04"/><stop offset=".65" stop-color="#f1cc5f" stop-opacity=".13"/><stop offset=".7" stop-color="#f4d57c" stop-opacity=".29"/><stop offset=".77" stop-color="#f7e2a5" stop-opacity=".51"/><stop offset=".83" stop-color="#fcf3d8" stop-opacity=".79"/><stop offset=".88" stop-color="#fff"/></linearGradient><linearGradient id="Безымянный_градиент_1304" x1="10983.14" y1="10954.42" x2="10994.32" y2="10969.92" gradientTransform="rotate(143 7311.88 3727.72)" gradientUnits="userSpaceOnUse"><stop offset=".16" stop-color="#fff"/><stop offset=".64" stop-color="#f6de98" stop-opacity=".44"/><stop offset="1" stop-color="#efc446" stop-opacity="0"/></linearGradient><linearGradient id="Безымянный_градиент_1304-2" x1="-204.27" y1="92.08" x2="-193.06" y2="107.62" gradientTransform="rotate(.62 7080.37 21956.3)" xlink:href="#Безымянный_градиент_1304"/><style>.cls-2{fill:#c36b2a}.cls-13{fill:#fff}.cls-10{opacity:.58}.cls-13{opacity:.5}</style></defs><g id="Шар_2" data-name="Шар 2"><g id="Star_progress"><path d="M56.79 43.73a1.35 1.35 0 00-.39 1.21l3.29 19.24a4 4 0 01-5.8 4.21l-17.28-9.08a1.34 1.34 0 00-1.26 0l-17.28 9.08a4 4 0 01-5.8-4.22l3-17.37.32-1.86a1.35 1.35 0 00-.39-1.21l-14-13.62a4 4 0 012.22-6.82l19.31-2.8a1.39 1.39 0 001-.75l8.63-17.5A4.18 4.18 0 0133.33 1l.1-.09a4 4 0 016.14 1.32l8.64 17.5a1.39 1.39 0 001 .75l5.46.79 13.85 2a4 4 0 012.22 6.82z" fill="url(#Безымянный_градиент_4)"/><path class="cls-2" d="M19.47 43.91L5.34 30.13a1.08 1.08 0 01.16-1.67l14 13.61a1.06 1.06 0 01.31 1l-.18 1zM55.53 64.32A1.08 1.08 0 0154 65.45l-17.51-9.18a1 1 0 00-1 0L18 65.45a1.08 1.08 0 01-1.57-1.13l.18-1a1.09 1.09 0 001.39.33l17.47-9.19a1.1 1.1 0 011 0L54 63.62a1.09 1.09 0 001.39-.33zM66.63 30.13L52.51 43.91l-.14.15-.18-1a1.06 1.06 0 01.32-1l14-13.61a1.07 1.07 0 01.12 1.68z"/><path d="M52.19 43.22l3.33 19.46A1.08 1.08 0 0154 63.81l-17.52-9.18a1 1 0 00-1 0L18 63.81a1.07 1.07 0 01-1.56-1.13l3.08-18 .26-1.48a1.05 1.05 0 00-.32-.95L5.35 28.49a1.08 1.08 0 01.59-1.84l19.53-2.83a1.11 1.11 0 00.81-.59L35 5.53a1.08 1.08 0 011.93 0l8.74 17.7a1.13 1.13 0 00.81.59l4.34.63L66 26.65a1.08 1.08 0 01.6 1.84L52.5 42.27a1 1 0 00-.31.95z" fill="url(#Безымянный_градиент_1294)"/><path class="cls-2" d="M15.18 46.13l-14-13.62a4 4 0 01-1-4.09 3.91 3.91 0 001 1.59l14 13.62a1.34 1.34 0 01.39 1.2l-.25 1.46a1.07 1.07 0 00-.14-.16zM59.69 66.58a4 4 0 01-5.8 4.21l-17.28-9.08a1.34 1.34 0 00-1.26 0l-17.28 9.08a4 4 0 01-5.8-4.22l.11-.66a4 4 0 005.69 2.38l17.28-9.08a1.34 1.34 0 011.26 0l17.28 9.08a4 4 0 005.69-2.37zM70.76 32.51l-14 13.62a1.07 1.07 0 00-.14.16l-.25-1.46a1.34 1.34 0 01.39-1.2l14-13.63a3.91 3.91 0 001-1.59 4 4 0 01-1 4.1z"/><path d="M59.67 64.18l-7.48-21 3.35 17.57c.5 2.9-1.11 5.11-3.72 3.75l-15.31-8.01a1.19 1.19 0 00-1.13 0l-15.31 8c-2.6 1.37-3.86-.53-3.36-3.42l2.54-14.82.21-1.25-7.22 19.18a4 4 0 005.81 4.21l17.27-9.08a1.36 1.36 0 011.27 0l17.27 9.08a4 4 0 005.81-4.21z" fill="url(#Безымянный_градиент_1328)" opacity=".16"/><path d="M37.48 40.58c-8.16 1-11.41 2.79-18.22 5.71l-2.84 16.39A1.07 1.07 0 0018 63.81l17.47-9.18a1.06 1.06 0 011 0l17.47 9.18a1.07 1.07 0 001.56-1.13l-3.62-20.07c0-1.16 2.44-3 2.69-3.22 0 0-9.64.32-17.09 1.19z" fill="url(#Безымянный_градиент_1735)"/><path d="M64.93 29.48l-10.36 9.91c-12.58.07-26.08 3-35.43 8.21l.39-2.24.25-2.36a1 1 0 000-.48C19.7 42.32 7.8 29.89 7.8 29.89c-.31-.31-2.75-2.73-2.63-3.1s15.76-1.12 20.67-1.88c.86-.14 1.5.08 2.37-2.17l6.85-16.45a1.08 1.08 0 011.94 0l7.86 18.39a1.06 1.06 0 00.81.59L65 27.57c.81.12.93.89-.07 1.91z" fill="url(#Безымянный_градиент_2)"/><path d="M51 56.53c.7.37 2.06 1.07 1.47 2s-1.82.41-2.53 0-1.38-1.31-1.09-1.87 1.44-.49 2.15-.13z" opacity=".8" fill="#fff"/><path d="M38.11 27.13c-8 2.16-17 6.56-21.36 10.82-.54.52 3.57 2.63 3.91 4.42a6.6 6.6 0 01-.26 3.18c12.74-7.55 35.43-8.21 35.43-8.21 2.91-2.91 8-7.43 9-8.88.04 0-17.38-3.84-26.72-1.33z" opacity=".3" fill="url(#Безымянный_градиент_1724)"/><path d="M54.24 62.46c-1.42 1-14.89-6.23-14.89-6.23l14.21 7.38c.74.45 2.17.06 1.95-.78l-3.24-18s3.02 16.87 1.97 17.63z" fill="url(#Безымянный_градиент_1304)"/><path d="M52.5 42.27a1.06 1.06 0 00-.31.95l3.33 19.46A1.09 1.09 0 0154 63.82l-17.52-9.19a1.1 1.1 0 00-1 0L18 63.82a1.09 1.09 0 01-1.57-1.14L19.14 47l.39-2.24.22-1.32v-.17a1.06 1.06 0 00-.31-.95L5.34 28.5a1.08 1.08 0 01.6-1.84l19.53-2.84a1.06 1.06 0 00.81-.59L35 5.53a1.08 1.08 0 011.94 0l8.74 17.7a1.06 1.06 0 00.81.59l4.33.63 7.05 1 .92.13 7.39 1.08a1 1 0 01.55 1.71L52.87 41.91z" fill="none" stroke="#be7323" strokeMiterlimit="10" stroke-width=".25"/><ellipse class="cls-13" cx="15.59" cy="29.17" rx="3.8" ry="1.61" transform="rotate(-2.86 15.7 29.25)"/><ellipse class="cls-13" cx="53.68" cy="29.79" rx="1.61" ry="3.8" transform="rotate(-85.88 53.67 29.8)"/><path d="M36 7c1.45.13 7.57 14.58 7.57 14.58L36.83 6.3a.89.89 0 00-1.69 0l-6.78 16.1S34.81 6.93 36 7z" fill="url(#Безымянный_градиент_1304-2)"/><path d="M33.43.92A4.11 4.11 0 0138 .51a4.16 4.16 0 011.64 1.76l1.09 2.17 4.34 8.66 2.16 4.34 1.08 2.18a1.36 1.36 0 00.85.65 10 10 0 001.16.2l9.6 1.37 4.8.68 2.4.35a17.53 17.53 0 012.42.42 4.19 4.19 0 012.82 3.85 4.07 4.07 0 01-.68 2.41A14.44 14.44 0 0170 31.34l-6.93 6.78-3.47 3.39-1.73 1.7c-.27.27-.62.58-.83.83a1.15 1.15 0 00-.18 1l3.23 19.12a4.19 4.19 0 01-2 4.34 4.09 4.09 0 01-2.44.57 5.54 5.54 0 01-2.33-.84l-8.57-4.53-4.3-2.3-2.14-1.14-1.07-.56a2.35 2.35 0 00-1.05-.41 2.21 2.21 0 00-1.06.4l-1.07.56-2.15 1.12-4.3 2.25L19 68.07a5.3 5.3 0 01-2.28.81 3.9 3.9 0 01-2.34-.56 4 4 0 01-1.91-4.15 4 4 0 001.94 4.1 3.93 3.93 0 002.3.52 5.22 5.22 0 002.23-.79l8.56-4.6 4.28-2.27L33.92 60l1.08-.56.54-.29a1.44 1.44 0 01.65-.15 1.67 1.67 0 01.65.15l.54.29 1.07.56 2.15 1.12 4.3 2.25 8.59 4.49a5.19 5.19 0 002.18.79 3.73 3.73 0 002.21-.53 3.77 3.77 0 001.8-3.93l-3.31-19.1a1.63 1.63 0 01.28-1.34 12.39 12.39 0 01.88-.89l1.74-1.69 3.48-3.37 7-6.76a15.53 15.53 0 001.65-1.71 3.74 3.74 0 00.6-2.18 3.83 3.83 0 00-2.55-3.51 18.85 18.85 0 00-2.35-.41l-2.4-.36-4.8-.7-9.59-1.42a9 9 0 01-1.21-.21 1.61 1.61 0 01-1-.8L47 17.56l-2.14-4.35-4.24-8.72C39.85 3.1 39.44 1.37 38 .56a4.09 4.09 0 00-4.57.36z" fill="#fff" opacity=".8"/><path d="M3.66 23.25c3.36-.62 6.74-1.16 10.11-1.69 1.69-.28 3.38-.52 5.07-.77l2.54-.37 1.27-.18c.41-.07.93-.11 1-.24l4.44-9.14c1.52-3.06 3.05-6.12 4.66-9.14a468.37 468.37 0 01-4.17 9.39c-.69 1.57-1.43 3.11-2.15 4.66l-1.08 2.32-.54 1.17-.27.58a2.73 2.73 0 01-.35.63 1.22 1.22 0 01-.8.4l-.64.08-1.27.17-2.54.34c-1.69.23-3.39.46-5.09.65-3.39.42-6.79.82-10.19 1.14z" fill="#be7323"/></g></g></svg>