<svg xmlns="http://www.w3.org/2000/svg" xmlns:xlink="http://www.w3.org/1999/xlink" viewBox="0 0 64.33 71.45"><defs><linearGradient id="Безымянный_градиент_104" x1="16.07" y1="11.35" x2="48.67" y2="65.97" gradientUnits="userSpaceOnUse"><stop offset="0" stop-color="#f0ad36"/><stop offset="1" stop-color="#db7926"/></linearGradient><linearGradient id="Безымянный_градиент_104-2" x1="95.65" y1="-24.37" x2="95.65" y2="-15.35" gradientTransform="rotate(90 52.3 -38.84)" xlink:href="#Безымянный_градиент_104"/><linearGradient id="Безымянный_градиент_104-3" x1="173.6" y1="-47.41" x2="173.6" y2="-39.84" gradientTransform="rotate(4.48 -561.1 -1609.57)" xlink:href="#Безымянный_градиент_104"/><linearGradient id="Безымянный_градиент_131" x1="18.53" y1="15.38" x2="46.8" y2="62.75" gradientUnits="userSpaceOnUse"><stop offset="0" stop-color="#f6e135"/><stop offset="1" stop-color="#f2b53a"/></linearGradient><linearGradient id="Безымянный_градиент_5" x1="29.04" y1="17.46" x2="35.75" y2="58.91" gradientUnits="userSpaceOnUse"><stop offset="0" stop-color="#f3f3f3"/><stop offset="1" stop-color="#c5c5c5"/></linearGradient><radialGradient id="Безымянный_градиент_374" cx="4114.92" cy="-6668.11" r="16.1" gradientTransform="matrix(.99 -.02 .03 .82 -3869.86 5571.42)" gradientUnits="userSpaceOnUse"><stop offset="0" stop-color="#fff"/><stop offset=".04" stop-color="#fff" stop-opacity=".94"/><stop offset=".25" stop-color="#fff" stop-opacity=".66"/><stop offset=".45" stop-color="#fff" stop-opacity=".42"/><stop offset=".63" stop-color="#fff" stop-opacity=".24"/><stop offset=".78" stop-color="#fff" stop-opacity=".11"/><stop offset=".91" stop-color="#fff" stop-opacity=".03"/><stop offset="1" stop-color="#fff" stop-opacity="0"/></radialGradient><style>.cls-17,.cls-2{fill:#ba5f22}.cls-3{fill:#db7926}.cls-5{fill:#cc6a21}.cls-6{fill:#f0ad36}.cls-7{fill:#f6e135}.cls-13{fill:#fbf766}.cls-17{opacity:.9}.cls-18{fill:#fff;opacity:.3}</style></defs><g id="Шар_2" data-name="Шар 2"><g id="Комментарии"><ellipse cx="32.17" cy="38.32" rx="32.16" ry="31.67" fill="url(#Безымянный_градиент_104)"/><path class="cls-2" d="M64.33 39.78a31.91 31.91 0 01-32.16 31.67C14.41 71.45 0 57.27 0 39.78v-1.26a32 32 0 0032.17 30.55 32 32 0 0032.16-30.55v1.26z"/><path class="cls-3" transform="rotate(2.22 33.25 10.46)" d="M31.25 7.73h3.7v5.28h-3.7z"/><path class="cls-2" d="M31.32 8.64a4.39 4.39 0 002 1A5 5 0 0035 9.8V8.44z"/><ellipse cx="33.32" cy="4.52" rx="4.51" ry="4.99" transform="rotate(-87.78 33.32 4.52)" fill="url(#Безымянный_градиент_104-2)"/><path class="cls-5" d="M38.31 4.71A4.78 4.78 0 0133.15 9a5.05 5.05 0 01-4.39-2.7 5.2 5.2 0 003.61 1.61 4.76 4.76 0 005.16-4.32 4.11 4.11 0 00-.41-2 4.28 4.28 0 011.19 3.12z"/><ellipse class="cls-6" cx="32.82" cy="3.53" rx="3.71" ry="2.81" transform="rotate(-14 33.28 3.31)"/><path class="cls-7" d="M34.76 1.27c0 .82-1.16.76-2.78 1.19a21 21 0 00-2.75.94c-.05-.63.93-2 2.16-2.5 1.41-.61 3.4-.51 3.37.37z"/><path class="cls-3" d="M48.78 11.66l-.24.41-.31.54-.49.84-.41.7-1.71 2.93-2.07-1.2 1.71-2.93.71-1.23.22-.37.01-.01.19-.32.21-.37.11-.19 2 1.17.07.03z"/><path class="cls-2" d="M48.72 12.16l-.31.5-.18-.05-.4.68a4 4 0 01-.94-.87 4.33 4.33 0 01-.7-1.07l-.06-.07-.06-.07-.17-.21-.21-.32.69.34 2.15 1.05z"/><path d="M52.34 11.33a3.66 3.66 0 01-3.93 1.33l-.18-.05A4.29 4.29 0 0146.9 12a4 4 0 01-.44-.36l-.18-.18-.08-.09-.07-.06-.06-.07-.17-.24-.2-.32-.21-.36-.1-.25a3.52 3.52 0 01-.15-.42l-.06-.23a4.66 4.66 0 01-.08-.64 4 4 0 010-.6 3.34 3.34 0 01.61-1.56A3.89 3.89 0 0151.17 6a4.26 4.26 0 011.74 2.7v.18A.86.86 0 0153 9a3.42 3.42 0 01-.66 2.33z" fill="url(#Безымянный_градиент_104-3)"/><path class="cls-5" d="M52.34 11.33a3.66 3.66 0 01-3.93 1.33l-.18-.05A4.29 4.29 0 0146.9 12a4 4 0 01-.44-.36l-.18-.18-.09-.08-.06-.07-.06-.07-.17-.24-.21-.32-.2-.36-.1-.25a3.52 3.52 0 01-.15-.42l-.06-.23a3.5 3.5 0 01-.08-.64 4.42 4.42 0 010-.63 4.22 4.22 0 001.48 2.47 2.47 2.47 0 00.27.21 4.27 4.27 0 001.84.76 3.64 3.64 0 003.6-1.39 3.37 3.37 0 00.6-1.53v.18A.86.86 0 0153 9a3.42 3.42 0 01-.66 2.33z"/><ellipse class="cls-6" cx="49.13" cy="8.09" rx="2.29" ry="3.02" transform="rotate(-71.4 49.13 8.08)"/><path class="cls-7" d="M51.46 7.41c-.39.59-1.13 0-2.46-.41a18.36 18.36 0 00-2.3-.6 3 3 0 012.59-.73c1.28.19 2.58 1.16 2.17 1.74z"/><path d="M60.41 38.46c0 15.23-12.94 28-27.9 28a27.8 27.8 0 01-28-27.58 27.8 27.8 0 0128-27.58c15.49.01 27.9 11.93 27.9 27.16z" fill="url(#Безымянный_градиент_131)"/><path fill="#ffeb78" d="M17.51 15.15l3.74 5.8-4.46 3.71-5.38-4.17 6.1-5.34z"/><path fill="#f2ea57" d="M51.88 18.71L47 24.02l-2.86-2.42 4.12-5.89 3.62 3z"/><path fill="#ffeb5c" opacity=".5" d="M21.41 56.55l-3.98 4.99-2.2-1.35 4.1-4.95 2.08 1.31z"/><path class="cls-2" d="M60.38 37.27a25.33 25.33 0 01-1.51 10.46A28.38 28.38 0 0153.4 57a29.22 29.22 0 01-8.53 6.65 28.34 28.34 0 01-21.17 1.87 27.15 27.15 0 01-9.47-5.22 28.07 28.07 0 01-6.7-8.43 28.36 28.36 0 01-2.9-10.33 29.27 29.27 0 0010.21 18A26.77 26.77 0 0024 64.41a27.46 27.46 0 0010.32 1 28.37 28.37 0 0018.38-9.03 28.94 28.94 0 005.62-8.86 26.43 26.43 0 001.49-5.08 26.49 26.49 0 00.57-5.17z"/><path class="cls-13" d="M4.55 37.27A24.89 24.89 0 016.7 27a29.32 29.32 0 0115.11-14.62 27.61 27.61 0 0110.62-2.16 28.44 28.44 0 0110.63 2 27.44 27.44 0 019 5.94A28.2 28.2 0 0158 27a27.46 27.46 0 012.35 10.24 29.09 29.09 0 00-9-18.37 27.33 27.33 0 00-8.74-5.56 27.76 27.76 0 00-10.2-1.9 26.87 26.87 0 00-10.17 2A29.06 29.06 0 0013.51 19a29.64 29.64 0 00-6.28 8.26 26.18 26.18 0 00-2.68 10.01z"/><path d="M50.41 28c5.83 10.28 3.13 23.17-7.66 29.11a21 21 0 01-28-7.72c-.15-.25 10.08 14.87 27.46 6.41 9.52-4.64 12.88-18 7.64-28.18.15.2.42.08.56.38z" fill="#efeceb"/><path class="cls-2" d="M54.1 38.18a23 23 0 01-2 9.7 20.42 20.42 0 01-4.61 6.39 21.42 21.42 0 01-15.36 6.09 21 21 0 01-15-6.07 22.15 22.15 0 01-4.73-6.77 20.51 20.51 0 01-1.4-8.89c.28 2.93.4 5 1.67 7.56a24.07 24.07 0 004.66 7.07 23.08 23.08 0 006.9 4.6 20.66 20.66 0 008 1.48A19.62 19.62 0 0040.15 58a23.08 23.08 0 007-4.49 22.44 22.44 0 004.7-6.69 24 24 0 002.25-8.64z"/><path d="M53.73 38a21 21 0 01-21.4 21.14 21 21 0 110-41.95c11.76.02 21.4 9.24 21.4 20.81z" fill="url(#Безымянный_градиент_5)"/><path d="M12 39.15c-.09 6.11 3.22 12.67 8.8 16.87A21.6 21.6 0 0111 37.73c.06-11.06 9.14-20 21.16-20.56a21.07 21.07 0 0115.22 6 21.78 21.78 0 00-13.59-5.1C22 18.12 12.17 27.68 12 39.15z" fill="#a3a09f"/><path class="cls-13" d="M11 37a20.64 20.64 0 011.61-8.35A23.42 23.42 0 0117.5 22a21.76 21.76 0 0129.9 0 23.36 23.36 0 015 6.74c1.49 2.91 1.49 5.61 1.5 8.29a20 20 0 00-2.1-7.86 22.21 22.21 0 00-4.84-6.44 23 23 0 00-6.73-4.31 20.72 20.72 0 00-7.76-1.57 20.39 20.39 0 00-7.79 1.44 23.08 23.08 0 00-6.77 4.23 22.78 22.78 0 00-5 6.34C11.61 31.2 11.2 34.25 11 37z"/><path class="cls-2" d="M32.44 59.52a21.53 21.53 0 01-21.67-21.34 21.67 21.67 0 0143.33 0 21.53 21.53 0 01-21.66 21.34zm0-42.3a21 21 0 1021.29 21 21.15 21.15 0 00-21.29-21z"/><path class="cls-17" d="M32.63 24.14c-.18 0-.43-.13-.43-.3V19c0-.17.25-.3.43-.3s.43.13.43.3v4.83c0 .17-.25.31-.43.31zM32.63 57.58c-.18 0-.43-.14-.43-.31v-5.05c0-.17.25-.31.43-.31s.43.14.43.31v5.05c0 .17-.25.31-.43.31zM52.24 38.3h-5.11a.29.29 0 110-.57h5.11a.29.29 0 110 .57zM18.34 38.3h-5.11a.29.29 0 110-.57h5.11a.29.29 0 110 .57zM24.52 25.42a.3.3 0 01-.26-.15l-2-3.19a.3.3 0 01.1-.42.32.32 0 01.44.1l2 3.19a.29.29 0 01-.1.42.34.34 0 01-.18.05zM43 54.86a.31.31 0 01-.27-.15l-2.06-3.28a.31.31 0 01.1-.43.32.32 0 01.44.1l2.06 3.28a.31.31 0 01-.1.43.26.26 0 01-.17.05zM46 30.4a.32.32 0 01-.27-.15.3.3 0 01.11-.43l3.32-2a.31.31 0 01.44.1.31.31 0 01-.1.43l-3.33 2a.26.26 0 01-.17.05zM16.14 48.63a.34.34 0 01-.27-.15A.33.33 0 0116 48l3.32-2a.32.32 0 01.44.11.31.31 0 01-.1.43l-3.33 2a.34.34 0 01-.19.09zM19.11 31a.28.28 0 01-.11 0l-3.42-1.88a.32.32 0 11.31-.55l3.42 1.88a.31.31 0 01.12.43.33.33 0 01-.32.12zM49.76 47.88a.28.28 0 01-.15 0L46.19 46a.31.31 0 01-.12-.43.32.32 0 01.44-.12l3.41 1.88a.3.3 0 01.12.43.31.31 0 01-.28.12zM40.31 25.07a.33.33 0 01-.14 0 .31.31 0 01-.12-.42l1.75-3.25a.29.29 0 01.4-.12.32.32 0 01.11.42l-1.75 3.25a.28.28 0 01-.25.12zM23.22 55.3a.26.26 0 01-.15 0 .32.32 0 01-.13-.43l1.91-3.37a.32.32 0 01.56.31l-1.91 3.33a.33.33 0 01-.28.16z"/><ellipse class="cls-18" cx="31.86" cy="37.73" rx="17.82" ry="16.52" transform="rotate(-39.08 31.86 37.74)"/><ellipse cx="43.86" cy="48.07" rx="3.54" ry="2.31" transform="rotate(-41.83 43.86 48.07)" opacity=".65" fill="#fff"/><ellipse cx="27.7" cy="33.63" rx="12.99" ry="9.8" transform="rotate(-39.05 27.7 33.63)" opacity=".6" fill="url(#Безымянный_градиент_374)"/><ellipse cx="25.45" cy="29.07" rx="6.49" ry="3.84" transform="rotate(-44.08 25.45 29.07)" opacity=".95" fill="#fff"/><path class="cls-18" d="M11.85 38c-.09 6.11 2.83 14 9.66 18.15a20.94 20.94 0 0110.82-39 21.36 21.36 0 0114.93 5.93c-4-3.24-7.63-5.48-14.2-5.59A20.7 20.7 0 0011.85 38z"/><path fill="#bc1223" d="M41.28 27.89L27.02 43.14l2 1.75 12.26-17z"/><path d="M29.65 40.33l-.2.22c0 .59 1.1 1.55 1.69 1.4l.21-.27z" fill="#8e0c3c"/><path d="M34.41 37.41l.22-.29a1.41 1.41 0 00-1.18-.85l-.35.37z" fill="#d83554"/><ellipse cx="32.21" cy="38.97" rx="2.93" ry="2.89" fill="#cc173c"/><ellipse cx="32.21" cy="38.97" rx="1.47" ry="1.44" fill="#efefef"/></g></g></svg>