<svg width="23" height="24" fill="none" xmlns="http://www.w3.org/2000/svg"><path d="M18.1 1c-.7 0-1.4.2-2 .7L3.2 15l-.5.4-.1.4a2.2 2.2 0 01-1 2.1l-.2.5c0 .1 0 .3.2.4l.4.4-1.2 1.2c-.1.1-.2.3-.1.5l.8 2.4a.5.5 0 00.9.2l1.9-2 .4.5a.6.6 0 00.5.1c.1 0 .3 0 .4-.2l.2-.4c.5-.4 1.2-.7 1.9-.6l.5-.1.4-.4L21.6 7c1-1 1-2.8 0-3.8l-1.5-1.6c-.6-.5-1.3-.8-2-.8zm0 1c.4 0 .9.2 1.2.5L20.8 4c.7.7.7 1.7 0 2.4l-1.1 1.1-3.9-3.9L17 2.5c.3-.3.7-.5 1.1-.5zm-3 2.4l.7.8-1.2 1.2a1.6 1.6 0 000 2.3 1.6 1.6 0 002.4 0L18 7.5l.8.8L8.1 19l-3.9-3.9L15 4.4zM16.5 6l.8.7L16.2 8c-.2.2-.6.2-.8 0a.5.5 0 010-.8L16.6 6zm-13 10.2l3.5 3.5c-.8 0-1.5.4-2.1 1l-.4-.4L3 18.7l-.3-.4c.5-.5.9-1.3 1-2.1zm-1 3.7l.8.8L2.1 22l-.4-1.2 1-1z" fill="#000000"/></svg>